{"title":"The.Adderall.Diaries.2016.WEBRip.480p.x264.AAC-VYTO [P2PDL]","uid":14345481,"size":348953682,"categoryP":"video","categoryS":"movies","magnet":"?xt=urn:btih:2d0a6e64233bd17d72ab9b9bdf38688ceb7a7adb&amp;dn=The.Adderall.Diaries.2016.WEBRip.480p.x264.AAC-VYTO+%5BP2PDL%5D&amp;tr=udp%3A%2F%2Ftracker.leechers-paradise.org%3A6969&amp;tr=udp%3A%2F%2Fzer0day.ch%3A1337&amp;tr=udp%3A%2F%2Fopen.demonii.com%3A1337&amp;tr=udp%3A%2F%2Ftracker.coppersurfer.tk%3A6969&amp;tr=udp%3A%2F%2Fexodus.desync.com%3A6969","seeders":1,"leechers":3,"uploader":"VYTOP2PDL","files":7,"time":1460788960,"description":"____    ____ ____    ____ .___________.  ______   \r\n     /   /      /   / |           | /  __    \r\n    /   /      /   /  `---|  |----`|  |  |  | \r\n        /     _    _/       |  |     |  |  |  | \r\n       /        |  |         |  |     |  `--'  | \r\n    __/         |__|         |__|      ______/  \r\n                                                  \r\nPresenting Small Encodes with quality for years!\r\n                                                                                                   \r\n                                                                                                   \r\n\r\n\r\nThe.Adderall.Diaries.2016.WEBRip.480p.x264.AAC-VYTO\r\n\r\n\r\nGenre: Drama, Romance, Thriller  \nhttp://www.imdb.com/title/tt1735907/\r\n\r\n\r\nFormat                                   : MPEG-4\r\nFile size                                : 326 MiB\r\nDuration                                 : 1h 27mn\r\nOverall bit rate                         : 524 Kbps\r\n\r\nVideo\r\nFormat                                   : AVC\r\nBit rate                                 : 481 Kbps\r\nWidth                                    : 720 pixels\r\nHeight                                   : 304 pixels\r\nDisplay aspect ratio                     : 2.35:1\r\nFrame rate mode                          : Constant\r\nFrame rate                               : 23.976 fps\r\nBit depth                                : 8 bits\r\nStream size                              : 299 MiB (92%)\r\nWriting library                          : x264\r\n\r\nAudio\r\nFormat                                   : AAC\r\nBit rate mode                            : Variable\r\nBit rate                                 : 39.9 Kbps\r\nChannel(s)                               : 2 channels\r\nChannel positions                        : Front: L R\r\nSampling rate                            : 48.0 KHz\r\nStream size                              : 24.8 MiB (8%)\r\nLanguage                                 : English\r\n\r\nSubtitle                                 : Yes (English)\r\n\r\nScreen Shots: (Click links to view)\r\n \nhttps://ititli.com/XLq \nhttps://ititli.com/XLr \nhttps://ititli.com/XL1 \nhttps://ititli.com/XLT \nhttps://ititli.com/XLW \nhttps://ititli.com/XLg \nhttps://ititli.com/XLn \nhttps://ititli.com/XLw \nhttps://ititli.com/XL2\r\n\r\n----------------------------------------------------------------------------------------------------\r\n\r\n\r\nEncoder Notes: Looking For Early Access To Anything You Can Provide WEBDL, DVDScr, DVDR, BluRay,\r\nDirect Audio, Music Releases and Seedboxes. If You Got anything to offer please contact us.\r\n\r\nSupport us by donating BC - 1FgwdzPsd1y25Gea8wP1qni35uGCtmkRCD\r\n\r\nFind us and join us!","torrent":{"xt":"urn:btih:2d0a6e64233bd17d72ab9b9bdf38688ceb7a7adb","amp;dn":"The.Adderall.Diaries.2016.WEBRip.480p.x264.AAC-VYTO+%5BP2PDL%5D","amp;tr":["udp%3A%2F%2Ftracker.leechers-paradise.org%3A6969","udp%3A%2F%2Fzer0day.ch%3A1337","udp%3A%2F%2Fopen.demonii.com%3A1337","udp%3A%2F%2Ftracker.coppersurfer.tk%3A6969","udp%3A%2F%2Fexodus.desync.com%3A6969"],"infoHash":"2d0a6e64233bd17d72ab9b9bdf38688ceb7a7adb","infoHashBuffer":{"type":"Buffer","data":[45,10,110,100,35,59,209,125,114,171,155,155,223,56,104,140,235,122,122,219]},"announce":[],"urlList":[]}}